<svg xmlns="http://www.w3.org/2000/svg" shape-rendering="geometricPrecision" text-rendering="geometricPrecision" image-rendering="optimizeQuality" fill-rule="evenodd" clip-rule="evenodd" viewBox="0 0 512 493.03"><path fill="#0983E0" fill-rule="nonzero" d="M125.195 0h261.61C455.583 0 512 56.416 512 125.195v242.64c0 68.891-56.304 125.195-125.195 125.195h-261.61C56.416 493.03 0 436.614 0 367.835v-242.64C0 56.326 56.349 0 125.195 0z"/><path fill="#88DFF3" d="M125.195 18.969h261.61c58.432 0 106.225 47.816 106.225 106.226v242.64c0 58.409-47.816 106.225-106.225 106.225h-261.61c-58.41 0-106.226-47.793-106.226-106.225v-242.64c0-58.432 47.794-106.226 106.226-106.226z"/><path fill="#A3EDFD" d="M141.365 28.465h223.536c58.432 0 111.937 48.466 111.937 106.226v223.671c0 57.759-54.177 106.225-111.937 106.225H141.365c-57.76 0-106.225-47.794-106.225-106.225V134.691c0-58.432 47.793-106.226 106.225-106.226z"/><path fill="#E8FBFD" d="M309.448 28.465h55.453c58.432 0 111.937 48.376 111.937 106.226v36.729c-17.514-.313-9.765-39.215-22.419-66.695-24.927-54.154-81.589-61.388-144.971-76.26z"/><path fill="#fff" fill-rule="nonzero" d="M265.241 298.943c3.628 0 6.869-.242 9.675-.726 2.613-.435 4.91-1.089 6.846-1.911 8.998-3.604 16.303-9.748 23.97-15.577 2.734-2.129 5.757-3.895 8.95-5.104l1.089-.363c3.12-1.04 6.289-1.621 9.457-1.621 14.49 0 21.843 8.369 21.843 25.084 0 4.185-.557 9.264-1.597 15.19-4.861 28.857-14.585 45.015-42.402 57.061-14.997 6.628-30.913 9.264-47.241 9.264-12.432 0-24.914-1.862-37.419-5.515-6.531-1.911-12.82-4.595-18.771-7.909-5.926-3.29-11.489-7.305-16.666-11.95-17.73-15.916-28.203-39.427-32.001-62.672-1.5-9.24-2.274-19.23-2.274-29.776 0-24.721 4.112-51.256 13.328-74.332a171.617 171.617 0 017.426-15.988c2.854-5.419 6.265-10.716 10.087-15.771 16.811-22.302 41.41-36.936 68.937-41.532 7.813-1.306 16.158-1.983 24.866-1.983 12.796 0 25.616 1.451 37.855 5.297 26.1 8.321 45.499 26.22 50.699 53.868.895 4.789 1.379 9.699 1.379 14.561 0 8.829-1.403 16.739-4.184 23.657-3.048 7.619-7.693 13.884-13.861 18.722l-1.258.895c-5.393 3.991-11.731 6.99-18.842 8.973-7.184 1.984-15.191 3-23.899 3l-8.345-.532c-3.628-.532-6.651-1.573-9.095-3.193l-2.056-1.645c-2.249-1.983-3.918-4.426-5.007-7.281-1.064-2.636-1.572-5.442-1.572-8.563l-.605-18.479-.508-5.467-.798-3.338-2.83-.145-5.974.604-3.846 1.548-4.137 3.097c-3.773 4.233-4.015 4.596-6.966 9.506l-2.709 6.361a115.626 115.626 0 00-4.257 15.771l-1.331 7.813c-.677 7.281-1.04 14.03-1.185 21.334.049 8.781.75 16.183 2.105 22.036l.121.629c1.62 6.725 4.16 12.385 10.788 15.142 3.144 1.282 7.256 1.96 12.215 1.96z"/><path fill="#0983E0" fill-rule="nonzero" d="M265.241 314.302c8.853 0 16.375-1.306 22.519-3.894 6.168-2.588 11.417-5.515 15.723-8.756a860.419 860.419 0 0011.514-8.757c3.362-2.588 6.772-3.894 10.231-3.894 4.306 0 6.483 3.241 6.483 9.724 0 3.459-.435 7.619-1.306 12.481s-2.056 10.329-3.556 16.376c-.871 3.676-2.975 7.692-6.337 11.997-3.339 4.33-7.934 8.394-13.788 12.167-5.829 3.798-13.013 6.918-21.552 9.409-8.538 2.492-18.31 3.726-29.341 3.726-11.03 0-22.06-1.621-33.09-4.862-11.005-3.242-20.85-8.756-29.509-16.545-8.636-7.765-15.675-18.263-21.069-31.446-5.394-13.182-8.103-29.727-8.103-49.61 0-7.136.484-15.408 1.451-24.818.968-9.409 2.879-19.085 5.684-29.026 2.806-9.942 6.749-19.714 11.829-29.341 5.079-9.627 11.611-18.214 19.617-25.785 8.006-7.547 17.778-13.666 29.341-18.31 11.586-4.645 25.349-6.967 41.362-6.967 12.747 0 23.826 1.5 33.235 4.524 9.41 3.023 17.174 7.208 23.342 12.481 6.168 5.297 10.692 11.514 13.618 18.649 2.927 7.136 4.378 14.707 4.378 22.713 0 13.836-4.063 23.947-12.166 30.308-8.104 6.386-19.617 9.579-34.518 9.579-4.765 0-7.74-.387-8.925-1.137-1.185-.774-1.79-2.322-1.79-4.717-.218-7.329-.435-13.714-.653-19.133-.218-5.394-.968-9.869-2.25-13.448-1.306-3.556-3.314-6.168-5.999-7.789-2.709-1.621-6.434-2.419-11.199-2.419-6.918 0-12.82 1.451-17.682 4.378-4.862 2.903-8.973 6.7-12.312 11.344-3.362 4.645-6.047 9.894-8.103 15.723a126.388 126.388 0 00-4.862 17.851c-1.185 6.048-1.959 11.877-2.274 17.489-.338 5.636-.483 10.498-.483 14.609 0 19.884 3.289 34.034 9.893 42.476 6.579 8.417 16.811 12.65 30.647 12.65z"/></svg>